HIERARCHY
ROOT Hips
{
	OFFSET 0.000000 0.000000 0.000000
	CHANNELS 6 Xposition Yposition Zposition Xrotation Yrotation Zrotation
	JOINT LeftUpLeg_virtual
	{
		OFFSET 0.000000 0.000000 0.000000
		CHANNELS 3 Xrotation Yrotation Zrotation
		JOINT LeftUpLeg
		{
			OFFSET 13.026900 -6.336304 -1.092800
			CHANNELS 3 Xrotation Yrotation Zrotation
			JOINT LeftLeg
			{
				OFFSET 0.524474 -46.096886 9.782700
				CHANNELS 3 Xrotation Yrotation Zrotation
				JOINT LeftFoot
				{
					OFFSET -0.524474 -53.427422 -12.948200
					CHANNELS 3 Xrotation Yrotation Zrotation
					JOINT LeftToeBase
					{
						OFFSET 0.192200 -14.009700 16.364100
						CHANNELS 3 Xrotation Yrotation Zrotation
						JOINT LeftToe_End
						{
							OFFSET -1.784700 -0.561700 9.474800
							CHANNELS 3 Xrotation Yrotation Zrotation
							End Site
							{
								OFFSET 0 0 0
							}
						}
					}
				}
			}
		}
	}
	JOINT RightUpLeg_virtual
	{
		OFFSET 0.000000 0.000000 0.000000
		CHANNELS 3 Xrotation Yrotation Zrotation
		JOINT RightUpLeg
		{
			OFFSET -12.883000 -6.336304 -1.092800
			CHANNELS 3 Xrotation Yrotation Zrotation
			JOINT RightLeg
			{
				OFFSET -0.524587 -46.096825 9.782800
				CHANNELS 3 Xrotation Yrotation Zrotation
				JOINT RightFoot
				{
					OFFSET 0.524587 -53.427383 -12.948300
					CHANNELS 3 Xrotation Yrotation Zrotation
					JOINT RightToeBase
					{
						OFFSET -0.192200 -14.009700 16.364100
						CHANNELS 3 Xrotation Yrotation Zrotation
						JOINT RightToe_End
						{
							OFFSET 1.784700 -0.561700 9.474800
							CHANNELS 3 Xrotation Yrotation Zrotation
							End Site
							{
								OFFSET 0 0 0
							}
						}
					}
				}
			}
		}
	}
	JOINT Spine_virtual
	{
		OFFSET 0.000000 0.000000 0.000000
		CHANNELS 3 Xrotation Yrotation Zrotation
		JOINT Spine
		{
			OFFSET 0.072000 7.257294 -0.789700
			CHANNELS 3 Xrotation Yrotation Zrotation
			JOINT Spine1
			{
				OFFSET 0.000000 12.508769 -0.658067
				CHANNELS 3 Xrotation Yrotation Zrotation
				JOINT Spine1_split
				{
					OFFSET 0.000000 12.508769 -0.658067
					CHANNELS 3 Xrotation Yrotation Zrotation
					JOINT Spine2
					{
						OFFSET 0.000000 12.508769 -0.658067
						CHANNELS 3 Xrotation Yrotation Zrotation
						JOINT Neck_virtual
						{
							OFFSET 0.000000 0.000000 0.000000
							CHANNELS 3 Xrotation Yrotation Zrotation
							JOINT Neck
							{
								OFFSET 0.000000 14.033295 7.520400
								CHANNELS 3 Xrotation Yrotation Zrotation
								JOINT Head
								{
									OFFSET 0.000000 8.198502 5.703100
									CHANNELS 3 Xrotation Yrotation Zrotation
									JOINT HeadTop_End
									{
										OFFSET 0.000000 17.760803 13.332701
										CHANNELS 3 Xrotation Yrotation Zrotation
										End Site
										{
											OFFSET 0 0 0
										}
									}
								}
							}
						}
						JOINT LeftShoulder_virtual
						{
							OFFSET 0.000000 0.000000 0.000000
							CHANNELS 3 Xrotation Yrotation Zrotation
							JOINT LeftShoulder
							{
								OFFSET 6.292450 5.785301 -0.669000
								CHANNELS 3 Xrotation Yrotation Zrotation
								JOINT LeftShoulder_split
								{
									OFFSET 6.292450 5.785301 -0.669000
									CHANNELS 3 Xrotation Yrotation Zrotation
									JOINT LeftArm
									{
										OFFSET 13.907140 -6.093903 1.965100
										CHANNELS 3 Xrotation Yrotation Zrotation
										JOINT LeftForeArm
										{
											OFFSET 34.140198 0.000000 0.000000
											CHANNELS 3 Xrotation Yrotation Zrotation
											JOINT LeftHand
											{
												OFFSET 40.960209 0.000000 0.000000
												CHANNELS 3 Xrotation Yrotation Zrotation
												End Site
												{
													OFFSET 0 0 0
												}
											}
										}
									}
								}
							}
						}
						JOINT RightShoulder_virtual
						{
							OFFSET 0.000000 0.000000 0.000000
							CHANNELS 3 Xrotation Yrotation Zrotation
							JOINT RightShoulder
							{
								OFFSET -6.292450 5.785301 -0.669000
								CHANNELS 3 Xrotation Yrotation Zrotation
								JOINT RightShoulder_split
								{
									OFFSET -6.292450 5.785301 -0.669000
									CHANNELS 3 Xrotation Yrotation Zrotation
									JOINT RightArm
									{
										OFFSET -13.907140 -6.093903 1.965100
										CHANNELS 3 Xrotation Yrotation Zrotation
										JOINT RightForeArm
										{
											OFFSET -34.140198 0.000000 0.000000
											CHANNELS 3 Xrotation Yrotation Zrotation
											JOINT RightHand
											{
												OFFSET -40.960209 0.000000 0.000000
												CHANNELS 3 Xrotation Yrotation Zrotation
												End Site
												{
													OFFSET 0 0 0
												}
											}
										}
									}
								}
							}
						}
					}
				}
			}
		}
	}
}
MOTION
Frames: 4
Frame Time: 0.03333333
9.373888 115.784172 -5.536337 0.000000 0.000000 0.000000 -1.049099 -19.822210 -1.555753 -8.943307 5.785013 1.080083 19.580861 9.192831 1.370157 -8.165552 18.763377 -2.295194 -3.354845 0.035662 -0.302688 0.000000 0.000000 0.000000 -0.527150 -19.489619 -1.685398 -18.889443 -9.582179 -10.786274 16.478583 1.285388 -0.607850 -1.725572 -2.891753 6.675449 -6.799096 0.244250 0.487423 0.000000 0.000000 0.000000 -0.881203 -20.200923 -2.607701 4.806816 1.460238 -1.501072 0.607114 0.352239 0.124499 0.914479 0.158197 0.231776 0.000000 0.000000 0.000000 0.736273 0.529710 -0.165444 -0.604257 -0.061338 2.680603 12.857303 9.902178 7.637850 0.000000 0.000000 0.000000 0.308035 0.454511 -0.062309 1.893802 -3.537568 -11.405221 -0.533292 -0.574711 -1.995830 -5.924943 -18.495444 -55.901236 0.072306 -12.457714 0.757712 0.000000 0.000000 0.000000 0.282562 0.483994 0.028406 2.940297 -2.042601 16.426806 -1.928187 1.984804 -2.665853 6.659291 1.339124 65.344591 1.352165 18.084097 1.450752 0.000000 0.000000 0.000000 
9.911636 115.797958 -5.274744 0.000000 0.000000 0.000000 -0.961747 -20.698586 -1.689147 -8.850528 5.827970 0.840298 19.551879 9.260820 1.341139 -8.461422 19.451026 -2.109659 -3.396230 0.046715 -0.280929 0.000000 0.000000 0.000000 -0.448477 -20.298404 -1.810186 -18.972845 -9.600709 -10.713249 16.196052 1.391163 -0.670495 -1.768302 -2.742152 6.509757 -6.702092 0.240232 0.474949 0.000000 0.000000 0.000000 -0.819399 -21.028481 -2.750992 4.545208 1.017955 -1.658628 0.566261 0.257994 0.108696 0.951216 0.165142 0.230983 0.000000 0.000000 0.000000 0.680646 0.421578 -0.183967 -0.622672 -0.058005 2.821878 13.032898 10.744218 8.107870 0.000000 0.000000 0.000000 0.251624 0.354206 -0.085362 1.826687 -3.770742 -11.381078 -0.633445 -0.512654 -1.991247 -6.266913 -19.916316 -56.163324 0.009877 -13.016336 0.748167 0.000000 0.000000 0.000000 0.238902 0.383569 -0.013824 2.980891 -2.495238 16.691399 -1.976345 1.849446 -2.705627 6.289365 1.899075 65.916441 1.389746 18.535600 1.415624 0.000000 0.000000 0.000000 
10.398249 115.822784 -5.009050 0.000000 0.000000 0.000000 -0.842463 -21.540226 -1.827110 -8.800664 5.859507 0.656888 19.537223 9.318631 1.326914 -8.718431 20.099910 -1.926856 -3.448455 0.057865 -0.259046 0.000000 0.000000 0.000000 -0.337469 -21.079359 -1.943697 -18.999339 -9.611062 -10.587445 15.793327 1.415770 -0.746947 -1.755351 -2.610082 6.304062 -6.542945 0.239781 0.466624 0.000000 0.000000 0.000000 -0.727035 -21.831151 -2.893504 4.310200 0.543531 -1.850332 0.531115 0.163207 0.073531 0.987059 0.185872 0.232991 0.000000 0.000000 0.000000 0.633806 0.310831 -0.217771 -0.631094 -0.059611 2.975427 13.190625 11.510939 8.650716 0.000000 0.000000 0.000000 0.206354 0.254287 -0.122266 1.740188 -4.059186 -11.301045 -0.717131 -0.454639 -1.985009 -6.445416 -21.491559 -56.410952 -0.018907 -13.883264 0.755054 0.000000 0.000000 0.000000 0.216453 0.281262 -0.078231 3.018642 -2.963270 17.009625 -2.053015 1.689891 -2.713563 5.805899 2.533553 66.402874 1.429747 18.986328 1.390382 0.000000 0.000000 0.000000 
10.820490 115.864075 -4.746862 0.000000 0.000000 0.000000 -0.666006 -22.309179 -1.950130 -8.803468 5.875818 0.523739 19.520179 9.369023 1.332767 -8.916283 20.700693 -1.743373 -3.508552 0.069115 -0.241986 0.000000 0.000000 0.000000 -0.173645 -21.800832 -2.070764 -18.968721 -9.585070 -10.439562 15.266409 1.370846 -0.837015 -1.603661 -2.496549 6.139900 -6.439706 0.241061 0.460622 0.000000 0.000000 0.000000 -0.577108 -22.566704 -3.016118 4.086898 0.034866 -2.094999 0.495873 0.065569 0.013131 1.003218 0.201481 0.255887 0.000000 0.000000 0.000000 0.592638 0.196540 -0.272410 -0.636756 -0.063734 3.151209 13.345716 12.196160 9.247086 0.000000 0.000000 0.000000 0.168773 0.154074 -0.177882 1.632813 -4.386762 -11.147152 -0.779946 -0.397707 -1.970024 -6.465641 -23.195710 -56.678033 -0.006878 -15.149988 0.773298 0.000000 0.000000 0.000000 0.208120 0.175335 -0.169129 3.055244 -3.451759 17.368232 -2.154903 1.513599 -2.702352 5.277983 3.211347 66.789729 1.466513 19.409991 1.388506 0.000000 0.000000 0.000000 
